<svg xmlns="http://www.w3.org/2000/svg" viewBox="0 0 490.475 453.115"><defs><style>.a{fill:#65b53b;}.b{fill:#fff;}.c,.d{fill:none;stroke:#fff;stroke-miterlimit:10;stroke-width:7px;}.d{stroke-dasharray:15.948 15.948;}</style></defs><title>logogreen</title><polygon class="a" points="0 93.115 179 9.115 179 368.115 0 453.115 0 93.115"/><polygon class="a" points="344.79 449.622 344.79 89.08 182.977 9.115 182.977 368.115 344.79 449.622"/><polygon class="a" points="490.475 358.928 490.475 0 347.552 89.106 347.552 449.622 490.475 358.928"/><path class="b" d="M573.586,323.787c-25.663,0-46.53,19.308-42.171,45.463,7.241,23.246,42.171,53.551,42.171,53.551s38.492-31.067,42.811-55.584S599.249,323.787,573.586,323.787Zm1.2,63.614c-15.06,0-27.269-11.468-27.269-25.614s12.209-25.614,27.269-25.614,27.269,11.468,27.269,25.614S589.847,387.4,574.787,387.4Z" transform="translate(-150 -77.885)"/><path class="b" d="M215.923,167.524c-19.072,0-34.58,14.349-31.34,33.787,5.381,17.276,31.34,39.8,31.34,39.8S244.53,218.02,247.74,199.8,235,167.524,215.923,167.524Zm1.322,49.338c-11.154,0-20.2-8.368-20.2-18.691s9.043-18.691,20.2-18.691,20.2,8.368,20.2,18.691S228.4,216.862,217.245,216.862Z" transform="translate(-150 -77.885)"/><circle class="b" cx="65.59" cy="175.97" r="5.762"/><circle class="b" cx="424.222" cy="356.428" r="5.584"/><path class="c" d="M214.107,266.594q0,4.052.136,8" transform="translate(-150 -77.885)"/><path class="d" d="M215.369,290.5c15.947,146.764,178.965,169.9,252.753-7.869,0,0,27.946-98.648-48.01-103.152-26.752,0-60.43-1.618-58.758,103.152,1.6,100.174,66.15,146.565,179.691,156.173" transform="translate(-150 -77.885)"/><path class="c" d="M548.991,439.412q3.956.27,7.986.484" transform="translate(-150 -77.885)"/></svg>